<svg xmlns="http://www.w3.org/2000/svg" width="512" height="429.175" viewBox="0 0 512 429.175">
  <g id="Group_2519" data-name="Group 2519" transform="translate(10901 5684)">
    <g id="Group_2518" data-name="Group 2518">
      <g id="modules" transform="translate(-10901 -5725.412)">
        <g id="Group_2499" data-name="Group 2499">
          <g id="Group_2498" data-name="Group 2498">
            <path id="Path_4399" data-name="Path 4399" d="M473.666,41.412H38.327A38.372,38.372,0,0,0,0,79.746v52.337c0,.023,0,.046,0,.069s0,.046,0,.069V432.253a38.372,38.372,0,0,0,38.324,38.334H473.666A38.377,38.377,0,0,0,512,432.253V79.746A38.377,38.377,0,0,0,473.666,41.412Zm23.126,390.842a23.152,23.152,0,0,1-23.126,23.126H38.327a23.147,23.147,0,0,1-23.116-23.126v-292.5H496.792Zm0-307.7H15.211v-44.8A23.147,23.147,0,0,1,38.327,56.62H473.666a23.152,23.152,0,0,1,23.126,23.126Z"/>
          </g>
        </g>
        <g id="Group_2501" data-name="Group 2501">
          <g id="Group_2500" data-name="Group 2500">
            <path id="Path_4400" data-name="Path 4400" d="M60.327,63.717A26.867,26.867,0,1,0,87.194,90.584,26.9,26.9,0,0,0,60.327,63.717Zm0,38.527A11.659,11.659,0,1,1,71.986,90.585,11.672,11.672,0,0,1,60.327,102.244Z"/>
          </g>
        </g>
        <g id="Group_2503" data-name="Group 2503">
          <g id="Group_2502" data-name="Group 2502">
            <path id="Path_4401" data-name="Path 4401" d="M180.979,63.717a26.867,26.867,0,1,0,26.867,26.867A26.9,26.9,0,0,0,180.979,63.717Zm0,38.527a11.659,11.659,0,1,1,11.659-11.659A11.672,11.672,0,0,1,180.979,102.244Z"/>
          </g>
        </g>
        <g id="Group_2505" data-name="Group 2505">
          <g id="Group_2504" data-name="Group 2504">
            <path id="Path_4402" data-name="Path 4402" d="M120.653,63.717A26.867,26.867,0,1,0,147.52,90.584,26.9,26.9,0,0,0,120.653,63.717Zm0,38.527a11.659,11.659,0,1,1,11.659-11.659A11.672,11.672,0,0,1,120.653,102.244Z"/>
          </g>
        </g>
        <g id="Group_2507" data-name="Group 2507">
          <g id="Group_2506" data-name="Group 2506">
            <path id="Path_4403" data-name="Path 4403" d="M160.577,158.063H41.2a7.6,7.6,0,0,0-7.6,7.6V285.042a7.6,7.6,0,0,0,7.6,7.6H160.577a7.6,7.6,0,0,0,7.6-7.6V165.666A7.6,7.6,0,0,0,160.577,158.063Zm-7.6,119.375H48.806V173.27H152.974Z"/>
          </g>
        </g>
        <g id="Group_2509" data-name="Group 2509">
          <g id="Group_2508" data-name="Group 2508">
            <path id="Path_4404" data-name="Path 4404" d="M315.689,158.063H196.314a7.6,7.6,0,0,0-7.6,7.6V285.042a7.6,7.6,0,0,0,7.6,7.6H315.689a7.6,7.6,0,0,0,7.6-7.6V165.666A7.6,7.6,0,0,0,315.689,158.063Zm-7.6,119.375H203.918V173.27H308.086V277.438Z"/>
          </g>
        </g>
        <g id="Group_2511" data-name="Group 2511">
          <g id="Group_2510" data-name="Group 2510">
            <path id="Path_4405" data-name="Path 4405" d="M470.8,158.063H351.427a7.6,7.6,0,0,0-7.6,7.6v28.384a7.6,7.6,0,1,0,15.208,0v-20.78H463.2V277.439H359.03V194.051c0-4.2-3.4-17.744-7.6-17.744s-7.605,13.545-7.605,17.744v90.992a7.6,7.6,0,0,0,7.6,7.6H470.8a7.6,7.6,0,0,0,7.6-7.6V165.666A7.6,7.6,0,0,0,470.8,158.063Z"/>
          </g>
        </g>
        <g id="Group_2513" data-name="Group 2513">
          <g id="Group_2512" data-name="Group 2512">
            <path id="Path_4406" data-name="Path 4406" d="M160.577,305.534H41.2a7.6,7.6,0,0,0-7.6,7.6V432.513a7.6,7.6,0,0,0,7.6,7.6h65.413c4.2,0-7.6-3.4-7.6-7.6s11.8-7.6,7.6-7.6H48.806V320.742H152.974V424.91H106.615a7.6,7.6,0,0,0,0,15.208h53.962a7.6,7.6,0,0,0,7.6-7.6V313.138A7.6,7.6,0,0,0,160.577,305.534Z"/>
          </g>
        </g>
        <g id="Group_2515" data-name="Group 2515">
          <g id="Group_2514" data-name="Group 2514">
            <path id="Path_4407" data-name="Path 4407" d="M315.689,305.534H196.314a7.6,7.6,0,0,0-7.6,7.6V432.513a7.6,7.6,0,0,0,7.6,7.6H315.689a7.6,7.6,0,0,0,7.6-7.6V313.138A7.6,7.6,0,0,0,315.689,305.534Zm-7.6,119.376H203.918V320.742H308.086V424.91Z"/>
          </g>
        </g>
        <g id="Group_2517" data-name="Group 2517">
          <g id="Group_2516" data-name="Group 2516">
            <path id="Path_4408" data-name="Path 4408" d="M470.8,305.534H351.427a7.6,7.6,0,0,0-7.6,7.6V432.513a7.6,7.6,0,0,0,7.6,7.6H470.8a7.6,7.6,0,0,0,7.6-7.6V313.138A7.6,7.6,0,0,0,470.8,305.534ZM463.2,424.91H359.03V320.742H463.2Z"/>
          </g>
        </g>
      </g>
    </g>
  </g>
</svg>
