<svg xmlns="http://www.w3.org/2000/svg" xmlns:xlink="http://www.w3.org/1999/xlink" version="1.1" x="0px" y="0px" viewBox="0 0 100 125" enable-background="new 0 0 100 100" xml:space="preserve"><path d="M22.1,66.5L19,70.8c-9.3-6.7-14.8-17.6-14.8-29C4.2,22,20.3,6,40,6V2.8c0-0.3,0.4-0.5,0.7-0.3l8.4,5.8  c0.2,0.2,0.2,0.5,0,0.7l-8.4,5.8c-0.3,0.2-0.7,0-0.7-0.3v-3.1C23.2,11.3,9.5,25,9.5,41.8C9.5,51.5,14.2,60.8,22.1,66.5z M67.4,73.4  C66.4,76,67,79,69,81l14.4,14.4c2.8,2.8,7.4,2.8,10.2,0v0c2.8-2.8,2.8-7.4,0-10.2L79.3,70.8c-2.1-2.1-5.1-2.6-7.6-1.7l-4.2-4.2  c5.3-6.2,8.5-14.3,8.5-23.1c0-11.4-5.5-22.3-14.8-29l-3.1,4.3c7.9,5.7,12.6,15,12.6,24.7c0,16.8-13.7,30.5-30.5,30.5h0v-3.1  c0-0.3-0.4-0.5-0.7-0.3L31,74.6c-0.2,0.2-0.2,0.5,0,0.7l8.4,5.8c0.3,0.2,0.7,0,0.7-0.3v-3.1h0c8.8,0,16.9-3.2,23.1-8.5L67.4,73.4z   M31.3,56.9l-3.5,2.5c-0.6,0.5-1.5,0.4-2.1-0.2l-1.5-1.5l-1.5-1.5c-0.6-0.6-0.6-1.4-0.2-2.1l2.4-3.4c-0.9-1.4-1.5-2.9-1.9-4.5  l-4.2-0.7c-0.8-0.1-1.3-0.8-1.3-1.6l0-2.1l0-2.1c0-0.8,0.6-1.4,1.3-1.6l4.2-0.7c0.4-1.6,1-3.1,1.8-4.5l-2.5-3.5  C22,29,22,28.1,22.6,27.5l1.5-1.5l1.5-1.5c0.6-0.6,1.4-0.6,2.1-0.2l3.4,2.4c1.5-0.9,3-1.5,4.6-1.9l0.7-4.2c0.1-0.8,0.8-1.3,1.6-1.3  l2.1,0l2.1,0c0.8,0,1.4,0.6,1.6,1.3l0.7,4.2c1.6,0.4,3.1,1,4.5,1.9l3.4-2.5c0.6-0.4,1.5-0.4,2.1,0.1l1.5,1.5l1.5,1.5  c0.6,0.6,0.6,1.4,0.2,2.1l-2.5,3.4c0.8,1.4,1.5,2.9,1.9,4.5l4.2,0.7c0.8,0.1,1.3,0.8,1.3,1.6l0,2.1l0,2.1c0,0.8-0.6,1.4-1.3,1.6  L57,46.1c-0.4,1.6-1,3.1-1.9,4.5l2.5,3.4c0.5,0.6,0.4,1.5-0.2,2.1l-1.5,1.5l-1.5,1.5c-0.6,0.6-1.4,0.6-2.1,0.2l-3.4-2.5  c-1.4,0.8-2.9,1.4-4.4,1.8l-0.7,4.2c-0.1,0.8-0.8,1.3-1.6,1.3l-2.1,0l-2.1,0c-0.8,0-1.4-0.6-1.6-1.3l-0.7-4.1  C34.2,58.4,32.7,57.8,31.3,56.9z M33.3,48.6c3.8,3.8,10,3.8,13.8,0c3.8-3.8,3.8-10,0-13.8c-3.8-3.8-10-3.8-13.8,0  C29.5,38.6,29.5,44.8,33.3,48.6z M44.2,45.8c2.2-2.3,2.2-5.9,0-8.1c-2.3-2.2-5.9-2.2-8.1,0c-2.2,2.3-2.2,5.9,0,8.1  C38.3,48,42,48,44.2,45.8z"/><text x="0" y="115" fill="#000000" font-size="5px" font-weight="bold" font-family="'Helvetica Neue', Helvetica, Arial-Unicode, Arial, Sans-serif">Created by Gregor Cresnar</text><text x="0" y="120" fill="#000000" font-size="5px" font-weight="bold" font-family="'Helvetica Neue', Helvetica, Arial-Unicode, Arial, Sans-serif">from the Noun Project</text></svg>