<svg xmlns="http://www.w3.org/2000/svg" width="384.377" height="393.988" viewBox="0 0 384.377 393.988">
  <path id="filter" d="M368.313,0H17.051A16.5,16.5,0,0,0,2.344,8.961a16.732,16.732,0,0,0,1.3,17.414L132.333,207.656c.043.063.09.121.133.184a36.769,36.769,0,0,1,7.219,21.816v147.8a16.431,16.431,0,0,0,16.434,16.535,16.922,16.922,0,0,0,6.48-1.3l72.313-27.574c6.48-1.977,10.781-8.09,10.781-15.453V229.656a36.774,36.774,0,0,1,7.215-21.816c.043-.062.09-.121.133-.184L381.724,26.367a16.717,16.717,0,0,0,1.3-17.406A16.5,16.5,0,0,0,368.314,0ZM236.782,195.992a56.932,56.932,0,0,0-11.1,33.664V347.234l-66,25.164V229.656a56.909,56.909,0,0,0-11.1-33.664L23.649,20h338.07Zm0,0" transform="translate(-0.496)"/>
</svg>
