<svg id="list" xmlns="http://www.w3.org/2000/svg" width="512" height="407.309" viewBox="0 0 512 407.309">
  <path id="Path_4417" data-name="Path 4417" d="M0,113.293H113.293V0H0ZM30,30H83.293V83.293H30Zm0,0"/>
  <path id="Path_4418" data-name="Path 4418" d="M149.3,0V113.293H512V0ZM482,83.293H179.3V30H482Zm0,0"/>
  <path id="Path_4419" data-name="Path 4419" d="M0,260.3H113.293V147.008H0Zm30-83.293H83.293V230.3H30Zm0,0"/>
  <path id="Path_4420" data-name="Path 4420" d="M149.3,260.3H512V147.008H149.3Zm30-83.293H482V230.3H179.3Zm0,0"/>
  <path id="Path_4421" data-name="Path 4421" d="M0,407.309H113.293v-113.3H0Zm30-83.293H83.293v53.289H30Zm0,0"/>
  <path id="Path_4422" data-name="Path 4422" d="M149.3,407.309H512v-113.3H149.3Zm30-83.293H482v53.289H179.3Zm0,0"/>
</svg>
