<svg xmlns="http://www.w3.org/2000/svg" width="479.998" height="487.992" viewBox="0 0 479.998 487.992">
  <g id="money" transform="translate(-3.997 0)">
    <g id="Group_2485" data-name="Group 2485">
      <g id="Group_2484" data-name="Group 2484">
        <path id="Path_4392" data-name="Path 4392" d="M207.677,17.656l8.64,13.472a97.327,97.327,0,0,1,103.336,0l8.64-13.472A111.827,111.827,0,0,0,207.677,17.656Z"/>
      </g>
    </g>
    <g id="Group_2487" data-name="Group 2487">
      <g id="Group_2486" data-name="Group 2486">
        <path id="Path_4393" data-name="Path 4393" d="M172,111.992H156a111.212,111.212,0,0,0,8.624,43.112l14.768-6.176A95.181,95.181,0,0,1,172,111.992Z"/>
      </g>
    </g>
    <g id="Group_2489" data-name="Group 2489">
      <g id="Group_2488" data-name="Group 2488">
        <path id="Path_4394" data-name="Path 4394" d="M304.893,200.608a94.962,94.962,0,0,1-36.9,7.384v16a110.992,110.992,0,0,0,43.088-8.616Z"/>
      </g>
    </g>
    <g id="Group_2491" data-name="Group 2491">
      <g id="Group_2490" data-name="Group 2490">
        <path id="Path_4395" data-name="Path 4395" d="M364,111.992a95.135,95.135,0,0,1-7.384,36.912l14.768,6.176A111.028,111.028,0,0,0,380,111.992H364Z"/>
      </g>
    </g>
    <g id="Group_2493" data-name="Group 2493">
      <g id="Group_2492" data-name="Group 2492">
        <path id="Path_4396" data-name="Path 4396" d="M268,31.992a80,80,0,1,0,80,80A80,80,0,0,0,268,31.992Zm0,144a64,64,0,1,1,64-64A64,64,0,0,1,268,175.992Z"/>
      </g>
    </g>
    <g id="Group_2495" data-name="Group 2495">
      <g id="Group_2494" data-name="Group 2494">
        <path id="Path_4397" data-name="Path 4397" d="M285.6,109.44l-9.6-3.2V85.712a12,12,0,0,1,8,10.28h16a28.96,28.96,0,0,0-24-27.008V63.992H260v4.992a28.96,28.96,0,0,0-24,27.008,20.105,20.105,0,0,0,14.4,18.552l9.6,3.2v20.512a12,12,0,0,1-8-10.264H236A28.96,28.96,0,0,0,260,155v4.992h16V155a28.96,28.96,0,0,0,24-27.008A20.106,20.106,0,0,0,285.6,109.44ZM260,100.912l-4.56-1.536C253.413,98.7,252,97.3,252,95.992a12,12,0,0,1,8-10.28Zm16,37.36v-15.2l4.56,1.536c2.024.68,3.44,2.072,3.44,3.384A12,12,0,0,1,276,138.272Z"/>
      </g>
    </g>
    <g id="Group_2497" data-name="Group 2497">
      <g id="Group_2496" data-name="Group 2496">
        <path id="Path_4398" data-name="Path 4398" d="M481.653,330.336l-26.344-26.344,26.344-26.344a8,8,0,0,0,0-11.312l-104-104a8,8,0,0,0-11.312,0L264,264.68,153.653,154.336a8,8,0,0,0-11.312,0l-104,104a8,8,0,0,0,0,11.312l58.344,58.344H4v16H108a7.891,7.891,0,0,0,3.152-.648l54.488-23.352H284v32H196a8,8,0,0,0-3.352,15.264l104,48a8,8,0,0,0,8-.8L443.2,314.472l21.064,21.064L305.037,471.992H261.429l-150.664-55.5a8.019,8.019,0,0,0-2.768-.5H4v16H106.565l150.664,55.5a8,8,0,0,0,2.768.5h48a7.952,7.952,0,0,0,5.2-1.928l168-144a8,8,0,0,0,.87-11.28C481.935,330.63,481.8,330.48,481.653,330.336ZM164,303.992a7.874,7.874,0,0,0-3.152.648l-1.944.8a39.776,39.776,0,0,1,73.64-1.448Zm85.64,0a55.76,55.76,0,0,0-53.64-40A56.361,56.361,0,0,0,140.4,313.4l-24.984,10.7L55.309,263.992,148,171.3,280.685,303.992Zm49.472,94.776-66.688-30.776H292a8,8,0,0,0,8-8V323.3l43.44,43.44Zm1.64-97.336a35.912,35.912,0,1,1,41.808,41.808Zm54.792,54.776a51.937,51.937,0,0,0,9.165-4.839l-8.133,5.871ZM438.8,297.872l-70.5,50.92a52,52,0,1,0-80.545-60.336l-12.456-12.464L372,179.3l92.688,92.688Z"/>
      </g>
    </g>
  </g>
</svg>
