<svg xmlns="http://www.w3.org/2000/svg" width="512" height="484.489" viewBox="0 0 512 484.489">
  <g id="promotion" transform="translate(0 0)">
    <path id="Path_4423" data-name="Path 4423" d="M136.965,308.234a10,10,0,1,0-13.66-3.66A10,10,0,0,0,136.965,308.234Zm0,0"/>
    <path id="Path_4424" data-name="Path 4424" d="M95.984,377.254l50.359,87.23a40,40,0,1,0,69.281-40l-30-51.969,25.98-15a10,10,0,0,0,3.66-13.66l-13-22.523c1.551-.3,11.746-2.3,191.539-37.57a30,30,0,0,0,24.316-44.949l-33.234-57.562,21.238-32.168a10,10,0,0,0,.316-10.512l-20-34.641a10.021,10.021,0,0,0-9.262-4.98L338.7,101.262,301.809,37.356a29.739,29.739,0,0,0-25.605-15c-.129,0-.254,0-.383,0a29.736,29.736,0,0,0-25.258,13.832L119.929,202.6,35,251.633a70,70,0,0,0,60.98,125.621Zm102.324,57.238a20,20,0,0,1-34.645,20l-50-86.613,34.641-20c57.867,100.242,49.074,85.012,50,86.617Zm-22.684-79.3-10-17.32,17.32-10,10,17.32Zm196.582-235.91,13.82,23.938L373.7,161.887l-23.82-41.262ZM267.289,47.153a10,10,0,0,1,17.2.2L400.8,248.817a10,10,0,0,1-8.414,14.992c-1.363.031-1.992.277-5.484.93L263.864,51.634c2.582-3.32,2.914-3.641,3.426-4.48ZM250.554,68.586l115.6,200.223L191.691,303.028l-53.047-91.879ZM26.7,337.254a49.966,49.966,0,0,1,18.3-68.3l77.941-45,50,86.6L95,355.559a50.061,50.061,0,0,1-68.3-18.3Zm0,0"/>
    <path id="Path_4425" data-name="Path 4425" d="M105.984,314.574a10,10,0,0,0-13.66-3.66l-17.32,10a10.013,10.013,0,0,1-13.66-3.66,10,10,0,0,0-17.32,10A30.039,30.039,0,0,0,85,338.234l17.32-10a10,10,0,0,0,3.66-13.66Zm0,0"/>
    <path id="Path_4426" data-name="Path 4426" d="M497.137,43.746,441.414,74.754a10,10,0,0,0,9.727,17.477L506.86,61.223a10,10,0,0,0-9.723-17.477Zm0,0"/>
    <path id="Path_4427" data-name="Path 4427" d="M491.293,147.316l-38.637-10.352a10,10,0,1,0-5.176,19.316l38.641,10.352a10,10,0,1,0,5.172-19.316Zm0,0"/>
    <path id="Path_4428" data-name="Path 4428" d="M394.2,7.414,383.836,46.055a10,10,0,0,0,19.32,5.18l10.359-38.641A10,10,0,1,0,394.2,7.414Zm0,0"/>
  </g>
</svg>
