<svg xmlns="http://www.w3.org/2000/svg" width="531.364" height="531.365" viewBox="0 0 531.364 531.365">
  <g id="role" transform="translate(-1 -1)">
    <path id="Path_4409" data-name="Path 4409" d="M144.986,124.982v-8.57a36.1,36.1,0,0,0-20.072-32.473l-12.967-6.479a34.148,34.148,0,0,0,7.328-21.04V40.735c0-19.061-14.253-34.736-32.448-35.687A33.967,33.967,0,0,0,61.4,14.407,34.419,34.419,0,0,0,50.711,39.278V56.419a34.192,34.192,0,0,0,7.319,21.04L45.063,83.938A36.106,36.106,0,0,0,25,116.411v8.57ZM52.734,99.271,76.422,87.426V71.64l-2.837-2.554a16.893,16.893,0,0,1-5.734-12.667V39.278A17.145,17.145,0,0,1,85.918,22.163c8.939.471,16.215,8.8,16.215,18.572V56.419A16.893,16.893,0,0,1,96.4,69.086L93.563,71.64V87.426l23.689,11.844a19.125,19.125,0,0,1,8.6,8.57h-81.7a19.064,19.064,0,0,1,8.588-8.57Z" transform="translate(181.69 30.285)"/>
    <path id="Path_4410" data-name="Path 4410" d="M480.025,108.336l-4.7-6.308L360.271,173.094,431.337,58.036l-6.308-4.7a265.7,265.7,0,0,0-316.693,0l-6.308,4.7,71.066,115.058L58.036,102.028l-4.7,6.308a265.7,265.7,0,0,0,0,316.693l4.7,6.308,115.058-71.066L102.028,475.329l6.308,4.7a265.7,265.7,0,0,0,316.693,0l6.308-4.7L360.271,360.271l115.058,71.066,4.7-6.308a265.7,265.7,0,0,0,0-316.693ZM124.945,62.51a248.575,248.575,0,0,1,283.475,0L327.258,193.928l-9.2-9.2-18.829,3.377-10.936-15.7H245.059l-10.927,15.7L215.3,184.732l-9.2,9.2ZM330.18,312.268,312.268,330.18l-20.843-3.745-12.076,17.381H254.024L241.94,326.444,221.1,330.189l-17.912-17.912,3.745-20.843-17.381-12.084V254.024l17.372-12.093L203.176,221.1l17.912-17.9,20.843,3.737,12.084-17.381h25.326l12.084,17.372,20.843-3.737,17.912,17.9-3.745,20.835,17.381,12.093v25.326l-17.372,12.084ZM62.518,408.42a248.55,248.55,0,0,1,0-283.483l131.418,81.17-9.2,9.2,3.377,18.829-15.71,10.927v43.238l15.7,10.927-3.377,18.829,9.2,9.2ZM240.971,513.758V498.083h51.422v15.675a253.4,253.4,0,0,1-25.711,1.465A253.4,253.4,0,0,1,240.971,513.758Zm85.7-67.1H206.69V403.809a8.574,8.574,0,0,1,8.57-8.57H318.1a8.574,8.574,0,0,1,8.57,8.57ZM206.69,463.8H326.675v8.57a8.574,8.574,0,0,1-8.57,8.57H215.26a8.574,8.574,0,0,1-8.57-8.57Zm201.73,7.045a245.574,245.574,0,0,1-98.885,40.572V498.083h8.57a25.743,25.743,0,0,0,25.711-25.711V403.809A25.743,25.743,0,0,0,318.1,378.1H215.26a25.743,25.743,0,0,0-25.711,25.711v68.563a25.743,25.743,0,0,0,25.711,25.711h8.57v13.344a245.816,245.816,0,0,1-98.885-40.572l81.162-131.41,9.2,9.2,18.829-3.377,10.936,15.692h43.238l10.927-15.7,18.829,3.377,9.2-9.2Zm62.427-62.427-131.41-81.162,9.2-9.2-3.377-18.829,15.7-10.936V245.059l-15.7-10.927,3.377-18.829-9.2-9.2,131.418-81.17a248.583,248.583,0,0,1-.009,283.492Z" transform="translate(0 0)"/>
    <path id="Path_4411" data-name="Path 4411" d="M69.852,27A42.852,42.852,0,1,0,112.7,69.852,42.9,42.9,0,0,0,69.852,27Zm0,68.563A25.711,25.711,0,1,1,95.563,69.852,25.743,25.743,0,0,1,69.852,95.563Z" transform="translate(196.83 196.83)"/>
    <path id="Path_4412" data-name="Path 4412" d="M112.563,22A68.643,68.643,0,0,0,44,90.563c0,24.014,12.41,44.395,34.282,56.633v37.641h68.563V147.2c21.872-12.247,34.282-32.619,34.282-56.633A68.643,68.643,0,0,0,112.563,22ZM95.422,167.7V150.556H129.7V167.7Zm8.57-77.134a8.57,8.57,0,1,1,8.57,8.57A8.579,8.579,0,0,1,103.993,90.563Zm32.182,42.852H121.134V114.7a25.711,25.711,0,1,0-17.141,0v18.718H88.952c-11.073-5.631-27.811-18.169-27.811-42.852a51.422,51.422,0,1,1,102.845,0C163.986,115.246,147.248,127.784,136.175,133.415Z" transform="translate(325.527 158.978)"/>
    <path id="Path_4413" data-name="Path 4413" d="M5,145.986H124.986V26H5Zm68.563-17.141H56.422V111.7H73.563Zm-17.141-85.7H73.563V60.282H56.422Zm-34.282,0H39.282V77.422H90.7V43.141h17.141v85.7H90.7V94.563H39.282v34.282H22.141Z" transform="translate(30.282 189.26)"/>
  </g>
</svg>
