<svg xmlns="http://www.w3.org/2000/svg" width="20.039" height="20.823" viewBox="0 0 20.039 20.823">
  <g id="Group_69" data-name="Group 69" transform="translate(-8162.931 -7124.129)">
    <path id="Path_430" data-name="Path 430" d="M8.12,16.453l-.679.942A7.841,7.841,0,0,1,12.04,3.2V2.5a.1.1,0,0,1,.153-.066l1.84,1.27a.106.106,0,0,1,0,.153l-1.84,1.27a.1.1,0,0,1-.153-.066V4.386A6.666,6.666,0,0,0,8.12,16.453Zm9.921,1.511a1.565,1.565,0,0,0,.35,1.664l3.154,3.154a1.586,1.586,0,0,0,2.234,0h0a1.586,1.586,0,0,0,0-2.234l-3.132-3.154a1.591,1.591,0,0,0-1.664-.372l-.92-.92a7.771,7.771,0,0,0,1.862-5.059,7.854,7.854,0,0,0-3.241-6.351L16,5.635a6.68,6.68,0,0,1-3.92,12.089h0v-.679a.1.1,0,0,0-.153-.066l-1.862,1.248a.106.106,0,0,0,0,.153l1.84,1.27a.1.1,0,0,0,.153-.066v-.679h0a7.771,7.771,0,0,0,5.059-1.862Zm-7.906-3.614-.767.548a.341.341,0,0,1-.46-.044l-.329-.329L8.252,14.2a.365.365,0,0,1-.044-.46l.526-.745a3.257,3.257,0,0,1-.416-.986l-.92-.153a.336.336,0,0,1-.285-.35v-.92a.374.374,0,0,1,.285-.35l.92-.153a3.866,3.866,0,0,1,.394-.986l-.548-.767a.346.346,0,0,1,.066-.416l.329-.329.329-.329a.365.365,0,0,1,.46-.044l.745.526A3.634,3.634,0,0,1,11.1,7.321l.153-.92a.336.336,0,0,1,.35-.285h.92a.374.374,0,0,1,.35.285l.153.92a3.257,3.257,0,0,1,.986.416l.745-.548a.4.4,0,0,1,.46.022l.329.329.329.329a.365.365,0,0,1,.044.46l-.548.745a3.921,3.921,0,0,1,.416.986l.92.153a.336.336,0,0,1,.285.35v.92a.374.374,0,0,1-.285.35l-.942.153a3.257,3.257,0,0,1-.416.986l.548.745a.341.341,0,0,1-.044.46l-.329.328-.329.329a.365.365,0,0,1-.46.044l-.745-.548a4.059,4.059,0,0,1-.964.394l-.153.92a.336.336,0,0,1-.35.285H11.6a.374.374,0,0,1-.35-.285l-.153-.9A2.8,2.8,0,0,1,10.135,14.351Zm.438-1.818a2.137,2.137,0,1,0,0-3.022A2.141,2.141,0,0,0,10.573,12.533Z" transform="translate(8158.73 7121.709)"/>
  </g>
</svg>
